<mxfile host="app.diagrams.net" modified="2024-01-17T08:07:03.620Z" agent="Mozilla/5.0 (X11; Linux x86_64) AppleWebKit/537.36 (KHTML, like Gecko) Chrome/120.0.0.0 Safari/537.36" etag="a3zw5YtNy_V2Bj_epgDE" version="22.1.18" type="github">
  <diagram name="第 1 页" id="76gSzwDmyLc00p9UoDqc">
    <mxGraphModel dx="1434" dy="703" grid="0" gridSize="10" guides="1" tooltips="1" connect="1" arrows="1" fold="1" page="1" pageScale="1" pageWidth="827" pageHeight="1169" math="0" shadow="0">
      <root>
        <mxCell id="0" />
        <mxCell id="1" parent="0" />
        <mxCell id="Lvt8BLayGIzZ9a2WDVhJ-5" value="" style="rounded=0;whiteSpace=wrap;html=1;" parent="1" vertex="1">
          <mxGeometry x="213.5" y="538" width="399" height="160" as="geometry" />
        </mxCell>
        <mxCell id="k-6rWUn0pmYKdRlieo-q-6" value="" style="rounded=0;whiteSpace=wrap;html=1;fillStyle=auto;fillColor=#FFFFFF;" vertex="1" parent="1">
          <mxGeometry x="223" y="552" width="297" height="101" as="geometry" />
        </mxCell>
        <mxCell id="YlZIAGrA0F06KBuR_lRS-27" value="" style="endArrow=none;html=1;rounded=0;entryX=0.5;entryY=1;entryDx=0;entryDy=0;" parent="1" edge="1">
          <mxGeometry width="50" height="50" relative="1" as="geometry">
            <mxPoint x="505.5" y="384" as="sourcePoint" />
            <mxPoint x="505.5" y="324" as="targetPoint" />
          </mxGeometry>
        </mxCell>
        <mxCell id="YlZIAGrA0F06KBuR_lRS-4" value="" style="rounded=0;whiteSpace=wrap;html=1;" parent="1" vertex="1">
          <mxGeometry x="511" y="44" width="150" height="209" as="geometry" />
        </mxCell>
        <mxCell id="AxmWXK1IRvQXEE8dryBR-5" value="" style="rounded=0;whiteSpace=wrap;html=1;" parent="1" vertex="1">
          <mxGeometry x="190" y="44" width="260" height="209" as="geometry" />
        </mxCell>
        <mxCell id="fNoI1GPfpQh8-SWNFA4j-1" value="" style="rounded=0;whiteSpace=wrap;html=1;" parent="1" vertex="1">
          <mxGeometry x="240" y="284" width="150" height="40" as="geometry" />
        </mxCell>
        <mxCell id="fNoI1GPfpQh8-SWNFA4j-2" value="GPU" style="rounded=0;whiteSpace=wrap;html=1;" parent="1" vertex="1">
          <mxGeometry x="462" y="284" width="88" height="40" as="geometry" />
        </mxCell>
        <mxCell id="fNoI1GPfpQh8-SWNFA4j-3" value="CPU" style="text;html=1;align=center;verticalAlign=middle;resizable=0;points=[];autosize=1;strokeColor=none;fillColor=none;rounded=0;" parent="1" vertex="1">
          <mxGeometry x="191" y="289" width="50" height="30" as="geometry" />
        </mxCell>
        <mxCell id="fNoI1GPfpQh8-SWNFA4j-5" value="" style="endArrow=none;dashed=1;html=1;rounded=0;" parent="1" edge="1">
          <mxGeometry width="50" height="50" relative="1" as="geometry">
            <mxPoint x="120" y="264" as="sourcePoint" />
            <mxPoint x="720" y="264" as="targetPoint" />
          </mxGeometry>
        </mxCell>
        <mxCell id="fNoI1GPfpQh8-SWNFA4j-6" value="Hardware" style="text;html=1;align=center;verticalAlign=middle;resizable=0;points=[];autosize=1;strokeColor=none;fillColor=none;rounded=0;" parent="1" vertex="1">
          <mxGeometry x="30" y="289" width="80" height="30" as="geometry" />
        </mxCell>
        <mxCell id="fNoI1GPfpQh8-SWNFA4j-7" value="Software" style="text;html=1;align=center;verticalAlign=middle;resizable=0;points=[];autosize=1;strokeColor=none;fillColor=none;rounded=0;" parent="1" vertex="1">
          <mxGeometry x="35" y="134" width="70" height="30" as="geometry" />
        </mxCell>
        <mxCell id="fNoI1GPfpQh8-SWNFA4j-8" value="" style="rounded=0;whiteSpace=wrap;html=1;" parent="1" vertex="1">
          <mxGeometry x="240" y="103" width="200" height="40" as="geometry" />
        </mxCell>
        <mxCell id="fNoI1GPfpQh8-SWNFA4j-10" value="" style="rounded=0;whiteSpace=wrap;html=1;" parent="1" vertex="1">
          <mxGeometry x="240" y="53" width="200" height="40" as="geometry" />
        </mxCell>
        <mxCell id="YlZIAGrA0F06KBuR_lRS-19" style="edgeStyle=orthogonalEdgeStyle;rounded=0;orthogonalLoop=1;jettySize=auto;html=1;exitX=0.5;exitY=1;exitDx=0;exitDy=0;" parent="1" source="fNoI1GPfpQh8-SWNFA4j-11" target="YlZIAGrA0F06KBuR_lRS-4" edge="1">
          <mxGeometry relative="1" as="geometry">
            <Array as="points">
              <mxPoint x="390" y="149" />
            </Array>
          </mxGeometry>
        </mxCell>
        <mxCell id="YlZIAGrA0F06KBuR_lRS-22" value="MMIO&lt;br&gt;DMA" style="edgeLabel;html=1;align=center;verticalAlign=middle;resizable=0;points=[];rounded=0;" parent="YlZIAGrA0F06KBuR_lRS-19" vertex="1" connectable="0">
          <mxGeometry x="0.3333" y="1" relative="1" as="geometry">
            <mxPoint x="8" y="1" as="offset" />
          </mxGeometry>
        </mxCell>
        <mxCell id="fNoI1GPfpQh8-SWNFA4j-11" value="GPU Driver" style="rounded=0;whiteSpace=wrap;html=1;fillStyle=auto;fillColor=#FFFFFF;" parent="1" vertex="1">
          <mxGeometry x="350" y="108" width="80" height="30" as="geometry" />
        </mxCell>
        <mxCell id="fNoI1GPfpQh8-SWNFA4j-12" value="MMU" style="rounded=0;whiteSpace=wrap;html=1;" parent="1" vertex="1">
          <mxGeometry x="275" y="294" width="80" height="30" as="geometry" />
        </mxCell>
        <mxCell id="fNoI1GPfpQh8-SWNFA4j-13" value="SMMU" style="rounded=0;whiteSpace=wrap;html=1;" parent="1" vertex="1">
          <mxGeometry x="472" y="344" width="68" height="20" as="geometry" />
        </mxCell>
        <mxCell id="fNoI1GPfpQh8-SWNFA4j-14" value="EL1" style="text;html=1;align=center;verticalAlign=middle;resizable=0;points=[];autosize=1;strokeColor=none;fillColor=none;rounded=0;" parent="1" vertex="1">
          <mxGeometry x="196" y="108" width="40" height="30" as="geometry" />
        </mxCell>
        <mxCell id="fNoI1GPfpQh8-SWNFA4j-15" value="EL0" style="text;html=1;align=center;verticalAlign=middle;resizable=0;points=[];autosize=1;strokeColor=none;fillColor=none;rounded=0;" parent="1" vertex="1">
          <mxGeometry x="196" y="58" width="40" height="30" as="geometry" />
        </mxCell>
        <mxCell id="AxmWXK1IRvQXEE8dryBR-1" value="" style="endArrow=none;html=1;rounded=0;" parent="1" edge="1">
          <mxGeometry width="50" height="50" relative="1" as="geometry">
            <mxPoint x="120" y="384" as="sourcePoint" />
            <mxPoint x="720" y="384" as="targetPoint" />
          </mxGeometry>
        </mxCell>
        <mxCell id="YlZIAGrA0F06KBuR_lRS-17" style="edgeStyle=orthogonalEdgeStyle;rounded=0;orthogonalLoop=1;jettySize=auto;html=1;exitX=1;exitY=0.5;exitDx=0;exitDy=0;entryX=0;entryY=0.5;entryDx=0;entryDy=0;" parent="1" source="AxmWXK1IRvQXEE8dryBR-2" target="AxmWXK1IRvQXEE8dryBR-23" edge="1">
          <mxGeometry relative="1" as="geometry" />
        </mxCell>
        <mxCell id="AxmWXK1IRvQXEE8dryBR-2" value="Application" style="rounded=0;whiteSpace=wrap;html=1;fillStyle=auto;fillColor=#CCCCCC;" parent="1" vertex="1">
          <mxGeometry x="250" y="58" width="80" height="30" as="geometry" />
        </mxCell>
        <mxCell id="AxmWXK1IRvQXEE8dryBR-3" value="Hypervisor" style="rounded=0;whiteSpace=wrap;html=1;" parent="1" vertex="1">
          <mxGeometry x="240" y="153" width="200" height="40" as="geometry" />
        </mxCell>
        <mxCell id="AxmWXK1IRvQXEE8dryBR-4" value="" style="rounded=0;whiteSpace=wrap;html=1;" parent="1" vertex="1">
          <mxGeometry x="240" y="203" width="200" height="40" as="geometry" />
        </mxCell>
        <mxCell id="AxmWXK1IRvQXEE8dryBR-6" value="EL2" style="text;html=1;align=center;verticalAlign=middle;resizable=0;points=[];autosize=1;strokeColor=none;fillColor=none;rounded=0;" parent="1" vertex="1">
          <mxGeometry x="196" y="158" width="40" height="30" as="geometry" />
        </mxCell>
        <mxCell id="AxmWXK1IRvQXEE8dryBR-7" value="EL3" style="text;html=1;align=center;verticalAlign=middle;resizable=0;points=[];autosize=1;strokeColor=none;fillColor=none;rounded=0;" parent="1" vertex="1">
          <mxGeometry x="196" y="208" width="40" height="30" as="geometry" />
        </mxCell>
        <mxCell id="AxmWXK1IRvQXEE8dryBR-9" value="" style="endArrow=none;html=1;rounded=0;entryX=0.5;entryY=1;entryDx=0;entryDy=0;" parent="1" target="fNoI1GPfpQh8-SWNFA4j-12" edge="1">
          <mxGeometry width="50" height="50" relative="1" as="geometry">
            <mxPoint x="315" y="384" as="sourcePoint" />
            <mxPoint x="440" y="304" as="targetPoint" />
          </mxGeometry>
        </mxCell>
        <mxCell id="AxmWXK1IRvQXEE8dryBR-10" value="Memory" style="rounded=0;whiteSpace=wrap;html=1;" parent="1" vertex="1">
          <mxGeometry x="342" y="409" width="120" height="40" as="geometry" />
        </mxCell>
        <mxCell id="AxmWXK1IRvQXEE8dryBR-11" value="" style="endArrow=none;html=1;rounded=0;entryX=0.5;entryY=0;entryDx=0;entryDy=0;" parent="1" target="AxmWXK1IRvQXEE8dryBR-10" edge="1">
          <mxGeometry width="50" height="50" relative="1" as="geometry">
            <mxPoint x="402" y="384" as="sourcePoint" />
            <mxPoint x="342" y="334" as="targetPoint" />
          </mxGeometry>
        </mxCell>
        <mxCell id="AxmWXK1IRvQXEE8dryBR-15" value="PCIe" style="text;html=1;align=center;verticalAlign=middle;resizable=0;points=[];autosize=1;strokeColor=none;fillColor=none;rounded=0;" parent="1" vertex="1">
          <mxGeometry x="720" y="364" width="50" height="30" as="geometry" />
        </mxCell>
        <mxCell id="AxmWXK1IRvQXEE8dryBR-17" value="GPU" style="rounded=0;whiteSpace=wrap;html=1;" parent="1" vertex="1">
          <mxGeometry x="620" y="284" width="88" height="40" as="geometry" />
        </mxCell>
        <mxCell id="AxmWXK1IRvQXEE8dryBR-18" value="" style="endArrow=none;html=1;rounded=0;exitX=1;exitY=0.5;exitDx=0;exitDy=0;entryX=0;entryY=0.5;entryDx=0;entryDy=0;" parent="1" source="fNoI1GPfpQh8-SWNFA4j-2" target="AxmWXK1IRvQXEE8dryBR-17" edge="1">
          <mxGeometry width="50" height="50" relative="1" as="geometry">
            <mxPoint x="538" y="334" as="sourcePoint" />
            <mxPoint x="538" y="404" as="targetPoint" />
          </mxGeometry>
        </mxCell>
        <mxCell id="AxmWXK1IRvQXEE8dryBR-19" value="NVLink" style="text;html=1;align=center;verticalAlign=middle;resizable=0;points=[];autosize=1;strokeColor=none;fillColor=none;rounded=0;" parent="1" vertex="1">
          <mxGeometry x="555" y="304" width="60" height="30" as="geometry" />
        </mxCell>
        <mxCell id="AxmWXK1IRvQXEE8dryBR-22" value="" style="rounded=0;whiteSpace=wrap;html=1;" parent="1" vertex="1">
          <mxGeometry x="214" y="738" width="399" height="388" as="geometry" />
        </mxCell>
        <mxCell id="YlZIAGrA0F06KBuR_lRS-15" style="edgeStyle=orthogonalEdgeStyle;rounded=0;orthogonalLoop=1;jettySize=auto;html=1;exitX=1;exitY=0.5;exitDx=0;exitDy=0;entryX=1;entryY=0.5;entryDx=0;entryDy=0;" parent="1" source="AxmWXK1IRvQXEE8dryBR-23" target="fNoI1GPfpQh8-SWNFA4j-11" edge="1">
          <mxGeometry relative="1" as="geometry">
            <Array as="points">
              <mxPoint x="470" y="73" />
              <mxPoint x="470" y="123" />
            </Array>
          </mxGeometry>
        </mxCell>
        <mxCell id="YlZIAGrA0F06KBuR_lRS-16" value="IOCTL" style="edgeLabel;html=1;align=center;verticalAlign=middle;resizable=0;points=[];rounded=0;" parent="YlZIAGrA0F06KBuR_lRS-15" vertex="1" connectable="0">
          <mxGeometry x="0.0364" y="2" relative="1" as="geometry">
            <mxPoint as="offset" />
          </mxGeometry>
        </mxCell>
        <mxCell id="AxmWXK1IRvQXEE8dryBR-23" value="CUDA" style="rounded=0;whiteSpace=wrap;html=1;fillStyle=auto;fillColor=#FFFFFF;" parent="1" vertex="1">
          <mxGeometry x="350" y="58" width="80" height="30" as="geometry" />
        </mxCell>
        <mxCell id="AxmWXK1IRvQXEE8dryBR-24" value="" style="rounded=0;whiteSpace=wrap;html=1;" parent="1" vertex="1">
          <mxGeometry x="234.5" y="778" width="235.5" height="238" as="geometry" />
        </mxCell>
        <mxCell id="AxmWXK1IRvQXEE8dryBR-25" value="GPU Chip" style="text;html=1;align=center;verticalAlign=middle;resizable=0;points=[];autosize=1;strokeColor=none;fillColor=none;rounded=0;" parent="1" vertex="1">
          <mxGeometry x="374" y="738" width="80" height="30" as="geometry" />
        </mxCell>
        <mxCell id="Lvt8BLayGIzZ9a2WDVhJ-1" value="" style="endArrow=none;dashed=1;html=1;rounded=0;" parent="1" edge="1">
          <mxGeometry width="50" height="50" relative="1" as="geometry">
            <mxPoint x="120" y="718" as="sourcePoint" />
            <mxPoint x="720" y="718" as="targetPoint" />
          </mxGeometry>
        </mxCell>
        <mxCell id="Lvt8BLayGIzZ9a2WDVhJ-2" value="Hardware" style="text;html=1;align=center;verticalAlign=middle;resizable=0;points=[];autosize=1;strokeColor=none;fillColor=none;rounded=0;" parent="1" vertex="1">
          <mxGeometry x="30" y="918" width="80" height="30" as="geometry" />
        </mxCell>
        <mxCell id="Lvt8BLayGIzZ9a2WDVhJ-3" value="Software" style="text;html=1;align=center;verticalAlign=middle;resizable=0;points=[];autosize=1;strokeColor=none;fillColor=none;rounded=0;" parent="1" vertex="1">
          <mxGeometry x="35" y="603" width="70" height="30" as="geometry" />
        </mxCell>
        <mxCell id="Lvt8BLayGIzZ9a2WDVhJ-9" value="Global Memory" style="rounded=0;whiteSpace=wrap;html=1;" parent="1" vertex="1">
          <mxGeometry x="232.25" y="1073" width="361.5" height="33" as="geometry" />
        </mxCell>
        <mxCell id="Lvt8BLayGIzZ9a2WDVhJ-10" value="L2 Cache" style="rounded=0;whiteSpace=wrap;html=1;" parent="1" vertex="1">
          <mxGeometry x="232.75" y="1028" width="360.5" height="31" as="geometry" />
        </mxCell>
        <mxCell id="Lvt8BLayGIzZ9a2WDVhJ-12" value="" style="rounded=0;whiteSpace=wrap;html=1;fillColor=#CCCCCC;fillStyle=auto;" parent="1" vertex="1">
          <mxGeometry x="250" y="810" width="128" height="184" as="geometry" />
        </mxCell>
        <mxCell id="AxmWXK1IRvQXEE8dryBR-26" value="SM" style="text;html=1;align=center;verticalAlign=middle;resizable=0;points=[];autosize=1;strokeColor=none;fillColor=none;rounded=0;" parent="1" vertex="1">
          <mxGeometry x="295" y="810" width="40" height="30" as="geometry" />
        </mxCell>
        <mxCell id="AxmWXK1IRvQXEE8dryBR-27" value="Core" style="rounded=0;whiteSpace=wrap;html=1;" parent="1" vertex="1">
          <mxGeometry x="260.25" y="833" width="40.75" height="25" as="geometry" />
        </mxCell>
        <mxCell id="AxmWXK1IRvQXEE8dryBR-28" value="Registers" style="rounded=0;whiteSpace=wrap;html=1;" parent="1" vertex="1">
          <mxGeometry x="260" y="870" width="110" height="29" as="geometry" />
        </mxCell>
        <mxCell id="AxmWXK1IRvQXEE8dryBR-30" value="Shared Memory" style="rounded=0;whiteSpace=wrap;html=1;" parent="1" vertex="1">
          <mxGeometry x="260" y="910" width="110" height="30" as="geometry" />
        </mxCell>
        <mxCell id="YlZIAGrA0F06KBuR_lRS-2" value="Kernel A" style="rounded=0;whiteSpace=wrap;html=1;fillColor=#CCCCCC;" parent="1" vertex="1">
          <mxGeometry x="531" y="70.5" width="110" height="40" as="geometry" />
        </mxCell>
        <mxCell id="YlZIAGrA0F06KBuR_lRS-3" value="Kernel B" style="rounded=0;whiteSpace=wrap;html=1;fillColor=#CCCCCC;" parent="1" vertex="1">
          <mxGeometry x="531" y="135.5" width="110" height="40" as="geometry" />
        </mxCell>
        <mxCell id="YlZIAGrA0F06KBuR_lRS-5" value="GPC" style="text;html=1;align=center;verticalAlign=middle;resizable=0;points=[];autosize=1;strokeColor=none;fillColor=none;rounded=0;" parent="1" vertex="1">
          <mxGeometry x="327.25" y="780" width="50" height="30" as="geometry" />
        </mxCell>
        <mxCell id="YlZIAGrA0F06KBuR_lRS-6" value="" style="rounded=0;whiteSpace=wrap;html=1;fillStyle=auto;fillColor=#FFFFFF;" parent="1" vertex="1">
          <mxGeometry x="232.25" y="564" width="194" height="76" as="geometry" />
        </mxCell>
        <mxCell id="YlZIAGrA0F06KBuR_lRS-7" value="" style="rounded=0;whiteSpace=wrap;html=1;fillColor=#CCCCCC;" parent="1" vertex="1">
          <mxGeometry x="242.25" y="583" width="128" height="49" as="geometry" />
        </mxCell>
        <mxCell id="YlZIAGrA0F06KBuR_lRS-8" value="Grid" style="text;html=1;align=center;verticalAlign=middle;resizable=0;points=[];autosize=1;strokeColor=none;fillColor=none;rounded=0;" parent="1" vertex="1">
          <mxGeometry x="377.25" y="592" width="50" height="30" as="geometry" />
        </mxCell>
        <mxCell id="k-6rWUn0pmYKdRlieo-q-2" value="L1 Cache" style="rounded=0;whiteSpace=wrap;html=1;" vertex="1" parent="1">
          <mxGeometry x="260.25" y="952" width="110" height="30" as="geometry" />
        </mxCell>
        <mxCell id="k-6rWUn0pmYKdRlieo-q-4" value="Warp" style="text;html=1;align=center;verticalAlign=middle;resizable=0;points=[];autosize=1;strokeColor=none;fillColor=none;rounded=0;" vertex="1" parent="1">
          <mxGeometry x="324.25" y="594.5" width="46" height="26" as="geometry" />
        </mxCell>
        <mxCell id="k-6rWUn0pmYKdRlieo-q-5" value="Block" style="rounded=0;whiteSpace=wrap;html=1;" vertex="1" parent="1">
          <mxGeometry x="248.75" y="591" width="47.5" height="32" as="geometry" />
        </mxCell>
        <mxCell id="k-6rWUn0pmYKdRlieo-q-7" value="Kernel" style="text;html=1;align=center;verticalAlign=middle;resizable=0;points=[];autosize=1;strokeColor=none;fillColor=none;rounded=0;" vertex="1" parent="1">
          <mxGeometry x="467" y="594" width="53" height="26" as="geometry" />
        </mxCell>
      </root>
    </mxGraphModel>
  </diagram>
</mxfile>
